<?xml version="1.0" standalone="no"?>
<!DOCTYPE svg PUBLIC "-//W3C//DTD SVG 20010904//EN"
 "http://www.w3.org/TR/2001/REC-SVG-20010904/DTD/svg10.dtd">
<svg version="1.0" xmlns="http://www.w3.org/2000/svg"
 width="800.000000pt" height="533.000000pt" viewBox="0 0 800.000000 533.000000"
 preserveAspectRatio="xMidYMid meet">

<g transform="translate(0.000000,533.000000) scale(0.100000,-0.100000)"
fill="#000000" stroke="none">
<path d="M2633 4959 c-6 -8 -24 -41 -39 -74 -27 -58 -28 -66 -29 -220 l0 -160
130 -22 c72 -12 146 -26 165 -32 19 -5 82 -20 140 -31 58 -12 148 -32 200 -45
52 -12 120 -26 150 -29 30 -3 83 -11 118 -18 52 -10 65 -9 77 3 24 24 66 236
75 379 5 74 12 146 15 160 9 39 -7 51 -91 70 -108 24 -893 41 -911 19z m52
-76 c-11 -59 -24 -212 -25 -281 0 -60 -1 -63 -22 -60 -22 3 -23 7 -26 127 -3
154 22 251 65 251 12 0 14 -8 8 -37z m883 -34 c4 -36 -21 -247 -43 -363 -22
-113 -33 -101 -34 37 -2 112 16 249 45 350 9 29 29 14 32 -24z"/>
<path d="M5578 4761 c-84 -91 -130 -169 -135 -229 -4 -50 7 -79 26 -68 6 4 11
22 11 39 0 40 52 130 131 227 33 39 59 78 59 86 0 30 -30 11 -92 -55z"/>
<path d="M6130 4694 c-186 -65 -254 -106 -362 -216 -64 -66 -106 -118 -123
-155 -25 -51 -29 -55 -53 -49 -93 23 -135 28 -200 23 -40 -3 -84 -12 -97 -21
-20 -13 -22 -21 -18 -58 3 -26 13 -50 25 -61 11 -9 84 -37 162 -62 177 -56
250 -103 205 -131 -14 -9 -5 -110 17 -185 9 -29 14 -70 11 -90 -7 -54 -86
-228 -111 -244 -82 -54 -308 -31 -483 50 -86 40 -224 136 -308 216 -62 58
-169 119 -240 137 -22 6 -89 13 -149 16 -125 6 -140 14 -132 66 3 19 0 53 -5
75 -6 22 -11 54 -10 71 1 25 -8 39 -38 65 -74 66 -103 89 -110 89 -4 0 -14 9
-24 20 -19 22 -48 26 -78 10 -15 -8 -19 -7 -19 3 0 8 -6 20 -13 26 -11 8 -19
5 -37 -14 -16 -17 -34 -25 -56 -25 -23 0 -39 -8 -57 -29 -13 -16 -32 -29 -43
-28 -22 2 -72 -92 -73 -138 l-1 -31 -87 9 c-181 17 -496 -7 -748 -58 -175 -35
-401 -133 -610 -263 -120 -75 -292 -229 -421 -377 -94 -109 -96 -116 -36 -150
17 -11 32 -23 32 -28 0 -5 -14 -39 -31 -76 -27 -56 -58 -92 -207 -241 -150
-150 -252 -271 -252 -301 0 -16 41 -32 53 -20 6 6 21 11 33 11 20 0 85 30 166
77 20 12 38 19 41 16 3 -2 -12 -31 -33 -64 -46 -72 -60 -141 -34 -170 23 -25
39 -24 106 10 80 41 158 103 278 222 l103 103 -6 -60 c-12 -115 13 -168 97
-208 20 -9 36 -24 36 -33 0 -21 68 -113 84 -113 7 0 71 29 142 64 71 35 140
67 153 71 13 4 63 25 110 47 47 22 131 58 186 80 55 21 116 50 136 63 20 13
66 37 103 54 54 24 66 34 66 53 0 40 -99 258 -153 338 -28 41 -63 98 -77 125
-16 32 -32 51 -45 53 -29 4 -161 -58 -239 -112 -35 -25 -69 -46 -74 -46 -5 0
-28 24 -51 53 -34 41 -40 53 -26 55 9 2 24 -3 33 -12 16 -14 22 -10 67 45 130
158 350 292 576 353 136 37 133 38 99 -37 -15 -34 -46 -134 -68 -222 -33 -132
-41 -185 -46 -301 -7 -153 -1 -188 36 -199 46 -14 58 -34 58 -97 0 -135 53
-295 128 -387 71 -88 127 -143 165 -162 148 -76 214 -270 124 -368 -34 -36
-134 -82 -191 -88 -67 -7 -257 29 -337 64 l-61 27 -28 -34 c-26 -32 -29 -33
-51 -18 -30 19 -152 63 -201 72 -20 4 -56 22 -78 41 -47 39 -92 45 -126 17
-11 -9 -46 -52 -78 -94 -101 -137 -228 -253 -438 -401 -102 -71 -133 -100
-166 -157 -23 -38 -27 -57 -27 -120 0 -63 4 -82 27 -120 45 -77 135 -125 163
-86 11 15 15 15 41 1 53 -27 107 -29 188 -5 42 13 81 29 87 36 6 8 18 14 25
14 17 0 134 59 179 89 39 27 40 27 55 -9 22 -54 45 -21 26 36 -4 15 -1 27 9
38 15 15 19 15 42 -4 14 -11 30 -20 35 -20 11 0 6 42 -7 73 -6 14 -2 17 30 17
46 0 90 30 100 67 4 16 6 29 5 31 0 1 6 15 14 30 8 15 17 36 20 46 10 29 13
18 25 -78 6 -49 20 -108 32 -132 30 -64 101 -138 151 -158 24 -10 52 -22 63
-27 63 -28 147 -49 198 -49 l57 0 0 -70 c0 -92 15 -160 55 -245 45 -97 83
-145 146 -182 89 -53 162 -67 317 -58 167 8 278 31 414 84 139 55 172 77 176
120 4 34 -19 71 -45 71 -18 0 -17 -35 2 -50 21 -18 10 -29 -59 -60 -151 -68
-295 -93 -515 -88 -164 3 -179 5 -226 28 -33 16 -66 46 -98 85 -73 91 -89 133
-95 240 -6 118 0 145 33 145 24 0 25 -2 25 -73 0 -87 21 -175 54 -223 13 -20
56 -56 96 -80 164 -103 257 -114 507 -60 157 34 209 51 230 78 6 7 19 38 29
68 16 46 18 64 9 106 -5 28 -16 58 -23 67 -8 9 -11 21 -8 26 4 6 -10 28 -29
50 -58 64 -176 93 -281 70 -77 -17 -75 -18 -85 9 -8 20 -3 25 46 48 34 16 55
33 55 43 0 9 8 2 20 -17 l20 -33 63 7 c86 9 159 28 306 81 226 82 400 180 488
276 60 66 74 94 115 232 32 108 33 114 33 300 0 226 -14 301 -81 435 -46 91
-132 220 -187 279 -18 18 -57 52 -87 74 -30 23 -68 55 -85 73 -31 32 -187 111
-240 121 -38 7 -71 37 -96 85 -24 47 -73 217 -65 225 3 4 19 -5 34 -19 15 -14
54 -40 87 -58 33 -18 64 -36 70 -41 5 -5 17 -9 27 -9 10 0 18 -4 18 -9 0 -11
63 -49 95 -57 14 -3 25 -11 25 -16 0 -6 6 -8 14 -5 8 3 26 -3 39 -14 14 -10
32 -17 39 -14 8 3 42 -8 76 -25 34 -17 74 -32 89 -34 16 -3 51 -9 78 -14 163
-32 202 -35 391 -30 59 2 97 8 108 17 9 7 16 10 16 6 0 -4 6 -3 13 3 6 5 31
15 54 21 93 25 210 99 303 193 50 50 90 96 90 103 0 6 9 20 19 29 11 10 38 57
62 104 23 48 48 99 56 114 7 14 13 38 13 53 0 14 6 38 14 53 13 27 32 188 40
349 4 79 3 82 -17 80 -17 -2 -24 9 -44 72 -12 41 -21 76 -20 78 2 1 48 5 102
9 115 7 289 46 324 72 36 27 47 67 26 98 -18 28 -108 71 -167 80 -49 8 -54 18
-25 41 30 23 47 55 47 86 0 43 -24 52 -141 52 -84 0 -105 3 -97 12 6 7 14 10
19 7 5 -3 9 0 9 5 0 6 7 11 15 11 24 0 33 79 12 107 -15 20 -75 12 -177 -23z
m65 -63 c3 -5 -25 -26 -63 -46 -83 -43 -134 -88 -126 -109 9 -22 51 -20 158 8
50 13 124 27 164 31 165 15 138 -25 -62 -90 -141 -46 -184 -70 -173 -98 4 -12
20 -13 84 -8 158 12 325 7 368 -12 30 -14 36 -20 25 -27 -17 -10 -128 -25
-305 -40 -139 -12 -178 -26 -204 -71 -12 -22 -10 -32 29 -117 23 -51 39 -100
36 -107 -8 -22 -50 -28 -118 -16 -96 17 -240 67 -251 88 -39 69 -152 151 -249
183 -21 6 -38 15 -38 19 0 7 90 -2 152 -15 33 -7 44 10 27 42 -12 23 -9 28 32
71 24 26 52 54 62 61 10 8 32 26 47 41 49 45 61 52 191 117 47 24 93 44 101
44 9 0 21 7 28 15 7 8 18 15 25 15 7 0 18 7 25 15 14 17 26 19 35 6z m-2093
-578 c24 -23 31 -25 38 -13 11 17 11 18 40 -45 31 -66 40 -184 16 -220 -55
-84 -325 -60 -326 29 -1 12 -7 39 -15 60 -16 46 -6 76 26 76 23 0 100 39 111
56 4 7 19 15 32 18 17 4 26 15 31 36 8 37 12 37 47 3z m-668 -108 c-1 -22 -10
-89 -20 -149 -21 -125 -17 -121 -143 -136 -208 -26 -377 -95 -553 -228 -36
-27 -122 -122 -154 -171 -2 -2 -16 6 -32 18 -17 12 -34 21 -39 21 -4 0 -46 19
-92 43 -77 39 -90 42 -176 45 -60 3 -121 -2 -175 -13 -45 -9 -83 -15 -86 -13
-6 7 278 258 291 258 4 0 28 14 53 31 25 17 55 35 66 40 12 5 44 23 71 39 28
17 57 33 65 36 102 40 152 59 200 74 32 10 76 28 98 39 23 12 57 21 77 21 20
0 45 5 56 11 46 24 382 79 464 75 28 -1 30 -3 29 -41z m215 22 l93 -12 19 -73
c24 -94 71 -177 112 -199 23 -11 60 -16 132 -17 86 -1 106 2 142 22 58 31 113
80 113 102 0 11 5 22 12 26 22 14 132 3 171 -17 21 -10 42 -19 48 -19 8 0 73
-37 130 -75 112 -73 206 -138 261 -177 84 -61 215 -123 310 -147 111 -28 315
-45 367 -31 154 41 270 349 196 520 -13 30 -22 57 -20 58 2 2 50 -15 107 -38
84 -34 118 -43 187 -46 54 -3 88 -1 97 7 8 6 21 8 30 5 14 -5 16 -17 10 -79
-40 -408 -304 -740 -647 -813 -113 -24 -345 -14 -464 19 -247 70 -653 288
-663 356 -2 12 13 70 33 128 25 72 33 109 26 116 -7 7 -15 6 -24 -2 -19 -15
-66 -121 -83 -185 -27 -102 -12 -274 35 -409 l20 -58 -22 -23 c-14 -14 -55
-31 -107 -44 -47 -12 -101 -27 -120 -33 -54 -18 -367 -15 -490 5 -234 38 -330
59 -371 79 -42 21 -44 24 -47 72 -5 94 52 371 93 444 8 14 21 44 30 66 25 63
76 136 102 146 28 10 30 29 4 29 -11 0 -22 4 -25 8 -6 11 31 248 44 280 11 25
20 26 159 9z m-1304 -703 c87 -23 107 -38 95 -70 -15 -39 -13 -45 38 -92 26
-25 42 -47 37 -49 -29 -10 -232 -172 -250 -199 -12 -17 -27 -57 -34 -87 -16
-71 0 -110 64 -156 38 -27 105 -107 105 -125 0 -19 -171 20 -216 49 -45 29
-58 70 -49 160 14 140 12 169 -8 173 -12 2 -30 -10 -50 -34 -154 -183 -426
-414 -435 -369 -5 24 54 106 154 210 100 104 118 129 110 150 -9 26 -42 17
-92 -25 -51 -42 -321 -186 -331 -176 -10 9 19 36 38 36 11 0 19 5 19 11 0 6
65 75 144 153 162 162 208 234 221 344 l7 60 46 12 c26 6 68 19 95 29 59 21
204 18 292 -5z m558 -112 c16 -23 67 -117 114 -208 70 -137 83 -169 71 -179
-7 -6 -101 -52 -208 -101 -107 -49 -242 -113 -300 -142 -97 -49 -106 -52 -117
-36 -7 10 -13 26 -13 37 0 25 -15 51 -68 116 -79 97 -102 140 -90 165 5 13 59
52 121 90 62 37 170 111 241 164 190 144 189 143 205 140 9 -2 28 -22 44 -46z
m-588 -752 c-3 -5 -10 -10 -16 -10 -5 0 -9 5 -9 10 0 6 7 10 16 10 8 0 12 -4
9 -10z m2172 -176 c55 -41 138 -180 163 -272 24 -91 -29 -183 -152 -263 -74
-47 -93 -50 -84 -11 46 201 46 419 0 565 -5 16 -3 18 18 12 12 -4 38 -18 55
-31z m-1822 -391 c-4 -10 -14 -38 -22 -63 -32 -93 -102 -163 -388 -385 -95
-75 -185 -149 -199 -165 -29 -36 -51 -124 -42 -173 4 -19 15 -46 26 -60 29
-36 25 -40 -19 -17 -84 42 -104 117 -57 215 28 60 74 105 181 176 115 76 296
221 347 278 24 27 62 75 83 107 47 71 75 104 88 104 5 0 6 -8 2 -17z m159 -59
c53 -8 67 -25 42 -52 -24 -27 -46 -100 -48 -156 -1 -47 2 -53 41 -86 22 -20
41 -39 41 -43 0 -4 -19 -39 -42 -78 -27 -45 -50 -72 -64 -75 -13 -3 -28 -12
-35 -20 -20 -24 -35 -16 -49 26 -31 95 -84 102 -61 8 6 -29 13 -62 14 -73 4
-39 -18 -30 -40 17 -41 87 -66 77 -34 -13 22 -58 22 -62 5 -80 -24 -27 -218
-123 -287 -143 -90 -26 -140 -19 -187 24 -45 42 -49 63 -20 119 18 37 143 161
162 161 5 0 26 16 46 36 20 20 49 42 65 50 15 8 27 18 27 23 0 4 26 24 58 44
80 49 179 157 225 245 42 79 42 79 141 66z m164 -63 c10 -6 9 -18 -7 -59 -11
-28 -23 -73 -27 -101 -7 -52 -10 -56 -31 -43 -28 17 -41 62 -31 105 18 82 58
123 96 98z m1167 -568 c8 -20 14 -37 13 -38 -2 -1 -22 -5 -46 -9 -38 -6 -41
-5 -33 11 5 10 14 30 20 46 14 37 28 34 46 -10z m-166 -105 c-85 -66 -91 -84
-25 -74 40 6 46 4 57 -15 10 -20 8 -25 -17 -45 -58 -46 -75 -65 -72 -81 4 -22
23 -27 40 -10 8 8 29 18 48 22 19 4 53 15 75 25 93 40 242 33 292 -13 12 -11
27 -34 32 -51 12 -38 18 -162 9 -171 -4 -4 -32 -9 -64 -11 -59 -4 -168 -25
-239 -46 -76 -22 -143 -16 -221 20 -101 47 -175 102 -200 146 -26 46 -47 138
-42 186 3 34 4 34 66 47 35 7 112 36 170 65 82 41 108 50 111 38 2 -7 -7 -22
-20 -32z"/>
<path d="M4117 3994 c-4 -4 -7 -13 -7 -20 0 -15 48 -74 60 -74 16 0 22 42 10
71 -15 35 -33 39 -24 4 8 -32 -2 -32 -19 0 -7 14 -16 23 -20 19z"/>
<path d="M3990 3928 l0 -31 -25 23 c-24 23 -25 23 -25 3 0 -31 39 -75 64 -71
25 4 34 54 16 88 -16 30 -30 24 -30 -12z"/>
<path d="M4080 3944 c0 -12 9 -29 19 -38 16 -15 18 -22 8 -37 -15 -24 -4 -33
28 -25 36 9 31 36 -15 81 -34 33 -40 36 -40 19z"/>
<path d="M4085 3823 c-40 -6 -51 -18 -35 -38 16 -19 74 -20 90 0 14 17 6 46
-12 44 -7 -1 -26 -4 -43 -6z"/>
<path d="M2770 3088 c-77 -47 -79 -55 -39 -121 25 -42 40 -57 57 -57 21 0 132
65 132 77 0 3 -14 34 -31 69 -20 40 -38 64 -48 64 -9 0 -41 -15 -71 -32z m87
-52 l22 -44 -40 -28 c-43 -29 -44 -29 -77 27 -21 34 -21 37 -4 51 22 20 54 37
68 38 5 0 20 -20 31 -44z"/>
<path d="M2572 2953 c-34 -20 -62 -41 -62 -46 0 -5 14 -34 31 -63 37 -66 54
-68 127 -19 l52 36 -33 61 c-18 34 -38 63 -43 65 -5 2 -37 -14 -72 -34z m83
-42 c9 -22 14 -44 10 -50 -7 -12 -65 -45 -69 -39 -11 15 -46 77 -46 81 0 7 63
47 76 47 6 0 19 -18 29 -39z"/>
<path d="M2910 2924 c-47 -21 -100 -62 -100 -79 0 -22 69 -125 84 -125 11 0
136 75 136 82 0 12 -68 132 -76 134 -5 2 -25 -4 -44 -12z m50 -64 c11 -21 20
-44 20 -49 0 -9 -60 -51 -74 -51 -12 0 -58 79 -51 90 8 13 66 50 77 50 4 0 17
-18 28 -40z"/>
<path d="M2406 2837 c-60 -34 -64 -47 -32 -101 18 -31 33 -46 48 -46 22 0 108
50 108 63 0 4 -11 30 -25 57 -29 57 -42 60 -99 27z m71 -43 c17 -35 17 -36 -6
-55 -32 -26 -46 -24 -70 14 l-21 32 28 22 c37 31 50 29 69 -13z"/>
<path d="M2694 2797 c-22 -12 -51 -30 -65 -40 l-24 -18 32 -57 c39 -71 57 -75
129 -28 l53 36 -33 62 c-18 34 -37 63 -42 64 -5 2 -27 -7 -50 -19z m61 -56
c19 -44 16 -55 -25 -76 -29 -15 -30 -14 -55 22 -14 21 -25 41 -25 44 0 9 62
49 76 49 6 0 19 -18 29 -39z"/>
<path d="M2487 2680 c-26 -16 -47 -37 -47 -45 0 -21 58 -105 72 -105 15 0 108
60 108 70 0 23 -55 110 -69 110 -10 0 -38 -13 -64 -30z m82 -39 l20 -40 -35
-22 c-39 -24 -38 -24 -69 33 -14 25 -13 27 18 47 17 11 35 21 38 21 4 0 16
-18 28 -39z"/>
<path d="M5323 4658 c-16 -20 -22 -58 -16 -89 9 -47 20 -33 26 33 6 68 5 75
-10 56z"/>
<path d="M2145 4152 c-29 -10 -51 -24 -53 -33 -3 -16 3 -16 75 0 58 12 79 20
81 34 5 22 -35 22 -103 -1z"/>
<path d="M2310 4036 c-138 -38 -203 -67 -317 -141 -105 -69 -233 -191 -233
-223 0 -35 27 -26 81 28 62 62 238 179 321 213 35 15 113 46 173 69 87 34 110
47 110 62 0 11 -4 20 -10 21 -5 2 -62 -12 -125 -29z"/>
<path d="M5630 2505 c0 -10 7 -26 15 -35 9 -10 19 -37 23 -61 8 -46 25 -56 30
-16 4 35 -20 98 -45 115 -21 13 -23 13 -23 -3z"/>
<path d="M5422 2488 c-18 -18 -15 -25 33 -77 56 -60 82 -117 96 -216 9 -60 9
-93 0 -143 -8 -44 -9 -68 -2 -75 38 -38 70 109 51 236 -19 134 -63 226 -127
269 -33 21 -35 22 -51 6z"/>
<path d="M6050 1839 c-36 -17 -78 -37 -95 -45 -16 -7 -55 -33 -87 -56 -31 -24
-206 -153 -388 -287 -183 -135 -335 -251 -338 -259 -3 -9 3 -54 12 -101 19
-89 57 -174 102 -226 15 -17 51 -63 81 -102 33 -43 63 -73 73 -73 10 0 81 34
158 75 77 41 158 81 179 89 21 8 88 37 148 66 61 29 166 76 234 106 67 29 151
71 185 93 33 22 81 47 106 56 57 20 80 42 80 74 0 48 -119 292 -207 422 -46
69 -92 141 -101 160 -23 46 -58 48 -142 8z m93 -71 c69 -93 275 -474 263 -486
-3 -3 -7 -3 -9 -1 -56 72 -118 177 -182 304 -54 108 -86 161 -98 163 -37 7
-70 -10 -133 -69 -64 -59 -486 -346 -619 -420 -38 -22 -81 -48 -94 -60 -24
-20 -24 -20 -7 -57 10 -20 35 -62 55 -92 21 -30 40 -66 44 -80 13 -52 68 -140
88 -140 10 0 19 -2 19 -4 0 -2 3 -11 6 -20 4 -10 -5 -20 -26 -31 -18 -9 -33
-15 -35 -13 -1 2 -10 19 -20 38 -10 19 -31 49 -47 65 -55 56 -115 150 -137
214 -20 59 -21 65 -6 88 21 32 131 111 235 170 170 95 389 249 530 373 64 57
114 89 137 90 7 0 23 -15 36 -32z"/>
<path d="M1823 1819 c-18 -5 -33 -16 -33 -23 0 -25 199 -4 208 22 5 15 -125
15 -175 1z"/>
<path d="M1978 1697 c-124 -42 -222 -129 -298 -262 -34 -59 -50 -125 -32 -125
7 0 20 17 31 38 30 57 125 167 188 217 32 24 99 64 150 87 51 23 93 48 93 55
0 20 -57 15 -132 -10z"/>
</g>
</svg>
